<svg width="58" height="56" viewBox="0 0 58 56" fill="none" xmlns="http://www.w3.org/2000/svg">
<g filter="url(#filter0_d_25_533)">
<path d="M28.5 0.599997C29.1667 0.199998 29.6667 0.366665 30 1.1L31.7 10.8C32.7667 17.1333 33.3333 20.3 33.4 20.3L43 18.9C49.5333 17.9667 52.8333 17.5333 52.9 17.6C53.3 17.7333 53.5667 18.0333 53.7 18.5C53.7667 18.9 53.4 19.3333 52.6 19.8C52.0667 20.0667 49.4667 21.4333 44.8 23.9C38.9333 27.0333 36.0333 28.5667 36.1 28.5C36.0333 28.5667 37.4333 31.5333 40.3 37.4C43.2333 43.2667 44.7 46.2333 44.7 46.3C44.7 46.7667 44.5333 47.0667 44.2 47.2C43.8667 47.4 43.4667 47.4333 43 47.3L36 40.4C31.4 35.9333 29.0667 33.7 29 33.7C28.9333 33.7 26.6 35.9333 22 40.4L15 47.3C14.5333 47.4333 14.1333 47.4 13.8 47.2C13.4667 47.0667 13.3 46.7667 13.3 46.3C13.3 46.2333 14.7667 43.2667 17.7 37.4C20.5667 31.5333 21.9667 28.5667 21.9 28.5C21.9667 28.5667 19.0667 27.0333 13.2 23.9C7.4 20.9 4.43333 19.2333 4.3 18.9C4.3 18.8333 4.3 18.7 4.3 18.5C4.43333 18.0333 4.7 17.7333 5.1 17.6C5.16667 17.5333 8.46667 17.9667 15 18.9L24.6 20.3C24.6667 20.3 25.2333 17.1333 26.3 10.8C27.3667 4.53333 27.9667 1.26667 28.1 0.999998C28.1 0.733331 28.2333 0.599997 28.5 0.599997Z" fill="#42393F"/>
</g>
<defs>
<filter id="filter0_d_25_533" x="0.300049" y="0" width="57.5" height="55.5" filterUnits="userSpaceOnUse" color-interpolation-filters="sRGB">
<feFlood flood-opacity="0" result="BackgroundImageFix"/>
<feColorMatrix in="SourceAlpha" type="matrix" values="0 0 0 0 0 0 0 0 0 0 0 0 0 0 0 0 0 0 127 0" result="hardAlpha"/>
<feOffset dy="4"/>
<feGaussianBlur stdDeviation="2"/>
<feComposite in2="hardAlpha" operator="out"/>
<feColorMatrix type="matrix" values="0 0 0 0 0 0 0 0 0 0 0 0 0 0 0 0 0 0 0.25 0"/>
<feBlend mode="normal" in2="BackgroundImageFix" result="effect1_dropShadow_25_533"/>
<feBlend mode="normal" in="SourceGraphic" in2="effect1_dropShadow_25_533" result="shape"/>
</filter>
</defs>
</svg>
