<svg width="93" height="51" viewBox="0 0 93 51" fill="none" xmlns="http://www.w3.org/2000/svg">
<g filter="url(#filter0_d_25_248)">
<path d="M12.7161 8.56265C13.6462 6.98616 15.0398 5.73479 16.7069 4.97906L17.0239 4.83536C19.1434 3.87456 21.5316 3.68304 23.7771 4.2938L27.2264 5.23196C27.7415 5.37205 28.2445 5.55314 28.7306 5.77352L33.7824 8.06355C35.0453 8.63604 36.1753 9.46492 37.1007 10.4975L40.312 14.0809C40.5707 14.3695 40.808 14.6768 41.022 15.0001L42.7651 17.634C43.6019 18.8984 43.5415 20.5551 42.6149 21.7552V21.7552C41.8988 22.6827 40.7705 23.1962 39.6008 23.1271L23.7668 22.1908L19.8779 21.9705C13.2229 21.5934 9.32909 14.3037 12.7161 8.56265V8.56265Z" stroke="white" stroke-width="6"/>
<path d="M80.6159 8.21377C79.6858 6.63728 78.2923 5.38591 76.6252 4.63019L76.3082 4.48648C74.1887 3.52568 71.8004 3.33416 69.5549 3.94492L66.1056 4.88308C65.5906 5.02317 65.0876 5.20427 64.6014 5.42464L59.5497 7.71468C58.2868 8.28717 57.1567 9.11604 56.2313 10.1487L53.02 13.732C52.7613 14.0207 52.524 14.3279 52.3101 14.6512L50.5669 17.2851C49.7302 18.5495 49.7905 20.2062 50.7172 21.4064V21.4064C51.4333 22.3338 52.5615 22.8473 53.7312 22.7782L69.5653 21.842L73.4542 21.6216C80.1092 21.2445 84.0029 13.9548 80.6159 8.21377V8.21377Z" stroke="white" stroke-width="6"/>
<path d="M4.90864 38.5905L24.9214 31.2631L41.8552 20.7954L45.7038 24.6335L27.6154 35.1013L4.90864 42.7775L4.90864 38.5905Z" fill="white"/>
<path d="M88.1876 38.2057L68.1748 30.8783L51.241 20.4106L47.3923 24.2488L65.4808 34.7165L88.1876 42.3928L88.1876 38.2057Z" fill="white"/>
<path d="M39.4224 18.1911C39.5032 17.3853 39.8123 16.6192 40.3135 15.9831C41.0508 15.0473 42.1465 14.4636 43.3344 14.3739L44.907 14.255C45.6937 14.1956 46.4837 14.1956 47.2704 14.255L48.7077 14.3636C49.9942 14.4608 51.1982 15.0342 52.0845 15.9716C52.6954 16.6178 53.1298 17.4102 53.346 18.2727L53.3658 18.3518C54.1906 21.6422 51.867 24.8868 48.4863 25.1655L47.0529 25.2836C46.6674 25.3154 46.2799 25.3138 45.8947 25.2789L44.7381 25.174C41.4548 24.8764 39.0447 21.9576 39.3736 18.6772L39.4224 18.1911Z" fill="white"/>
</g>
<defs>
<filter id="filter0_d_25_248" x="0.908691" y="0.594238" width="91.2788" height="50.1833" filterUnits="userSpaceOnUse" color-interpolation-filters="sRGB">
<feFlood flood-opacity="0" result="BackgroundImageFix"/>
<feColorMatrix in="SourceAlpha" type="matrix" values="0 0 0 0 0 0 0 0 0 0 0 0 0 0 0 0 0 0 127 0" result="hardAlpha"/>
<feOffset dy="4"/>
<feGaussianBlur stdDeviation="2"/>
<feComposite in2="hardAlpha" operator="out"/>
<feColorMatrix type="matrix" values="0 0 0 0 0 0 0 0 0 0 0 0 0 0 0 0 0 0 0.25 0"/>
<feBlend mode="normal" in2="BackgroundImageFix" result="effect1_dropShadow_25_248"/>
<feBlend mode="normal" in="SourceGraphic" in2="effect1_dropShadow_25_248" result="shape"/>
</filter>
</defs>
</svg>
