<svg width="490" height="578" viewBox="0 0 490 578" fill="none" xmlns="http://www.w3.org/2000/svg">
<ellipse cx="245.5" cy="296.5" rx="210.5" ry="244.5" fill="#D9D9D9"/>
<path d="M470 297C470 443.809 366.777 558 245 558C123.223 558 20 443.809 20 297C20 150.191 123.223 36 245 36C366.777 36 470 150.191 470 297Z" stroke="#42393F" stroke-width="40"/>
<g filter="url(#filter0_d_25_541)">
<path d="M169.203 14.912C170.248 13.1406 171.814 11.7346 173.687 10.8854L181.629 7.28531C183.748 6.32451 186.136 6.13299 188.382 6.74375L201.758 10.3819C202.273 10.522 202.776 10.7031 203.262 10.9234L218.241 17.7134C219.504 18.2859 220.634 19.1148 221.559 20.1474L231.123 30.8194C231.448 31.1822 231.746 31.5682 232.015 31.9744L236.338 38.5069C238.254 41.402 238.116 45.1953 235.994 47.9432V47.9432C234.355 50.0667 231.771 51.2425 229.093 51.0842L192.839 48.9405L166.928 47.4723C159.451 47.0486 155.076 38.8578 158.881 32.407L169.203 14.912Z" stroke="#42393F" stroke-width="6"/>
<path d="M321.337 14.1132C320.292 12.3418 318.727 10.9357 316.853 10.0866L308.912 6.48648C306.792 5.52568 304.404 5.33416 302.158 5.94492L288.782 9.58305C288.267 9.72314 287.764 9.90424 287.278 10.1246L272.3 16.9146C271.037 17.4871 269.907 18.316 268.981 19.3486L259.417 30.0205C259.092 30.3833 258.794 30.7694 258.525 31.1756L254.202 37.708C252.286 40.6031 252.424 44.3964 254.546 47.1444V47.1444C256.185 49.2679 258.769 50.4437 261.447 50.2853L297.702 48.1417L323.612 46.6735C331.09 46.2498 335.465 38.0589 331.659 31.6082L321.337 14.1132Z" stroke="#42393F" stroke-width="6"/>
<path d="M149.66 86.4902L195.482 69.7129L234.255 45.7454L243.067 54.5334L201.651 78.501L149.66 96.0771L149.66 86.4902Z" fill="#42393F"/>
<path d="M340.34 85.6093L294.518 68.832L255.745 44.8645L246.933 53.6526L288.349 77.6201L340.34 95.1962L340.34 85.6093Z" fill="#42393F"/>
<g filter="url(#filter1_d_25_541)">
<path d="M234.04 44.4842C234.169 43.1883 234.666 41.9562 235.47 40.9323C236.657 39.4223 238.424 38.4799 240.339 38.3349L243.252 38.1143C244.257 38.0382 245.267 38.0382 246.272 38.1143L248.967 38.3184C251.041 38.4755 252.981 39.401 254.408 40.9137C255.39 41.9538 256.087 43.2285 256.434 44.6155L256.467 44.7473C257.794 50.0536 254.047 55.2841 248.596 55.7344L246.245 55.9286C245.67 55.9761 245.092 55.9737 244.517 55.9215L242.613 55.7485C237.318 55.2674 233.432 50.5606 233.961 45.2703L234.04 44.4842Z" fill="#42393F"/>
</g>
</g>
<defs>
<filter id="filter0_d_25_541" x="145.66" y="0.594238" width="198.68" height="101.483" filterUnits="userSpaceOnUse" color-interpolation-filters="sRGB">
<feFlood flood-opacity="0" result="BackgroundImageFix"/>
<feColorMatrix in="SourceAlpha" type="matrix" values="0 0 0 0 0 0 0 0 0 0 0 0 0 0 0 0 0 0 127 0" result="hardAlpha"/>
<feOffset dy="2"/>
<feGaussianBlur stdDeviation="2"/>
<feColorMatrix type="matrix" values="0 0 0 0 0 0 0 0 0 0 0 0 0 0 0 0 0 0 0.5 0"/>
<feBlend mode="normal" in2="BackgroundImageFix" result="effect1_dropShadow_25_541"/>
<feBlend mode="normal" in="SourceGraphic" in2="effect1_dropShadow_25_541" result="shape"/>
</filter>
<filter id="filter1_d_25_541" x="229.913" y="34.0574" width="30.8228" height="25.9053" filterUnits="userSpaceOnUse" color-interpolation-filters="sRGB">
<feFlood flood-opacity="0" result="BackgroundImageFix"/>
<feColorMatrix in="SourceAlpha" type="matrix" values="0 0 0 0 0 0 0 0 0 0 0 0 0 0 0 0 0 0 127 0" result="hardAlpha"/>
<feOffset/>
<feGaussianBlur stdDeviation="2"/>
<feComposite in2="hardAlpha" operator="out"/>
<feColorMatrix type="matrix" values="0 0 0 0 0 0 0 0 0 0 0 0 0 0 0 0 0 0 0.8 0"/>
<feBlend mode="normal" in2="BackgroundImageFix" result="effect1_dropShadow_25_541"/>
<feBlend mode="normal" in="SourceGraphic" in2="effect1_dropShadow_25_541" result="shape"/>
</filter>
</defs>
</svg>
